<?xml version="1.0" encoding="UTF-8" standalone="no"?>
<svg width="22px" height="22px" viewBox="0 0 22 22" version="1.1" xmlns="http://www.w3.org/2000/svg" xmlns:xlink="http://www.w3.org/1999/xlink">
    <!-- Generator: sketchtool 40.3 (33839) - http://www.bohemiancoding.com/sketch -->
    <title>113EBE34-1803-4E9F-8AD6-D8F65A3FAEBD</title>
    <desc>Created with sketchtool.</desc>
    <defs></defs>
    <g id="Page-1" stroke="none" stroke-width="1" fill="none" fill-rule="evenodd">
        <g id="diamanti_icon-library" transform="translate(-88.000000, -553.000000)">
            <g id="ico-delete-circle" transform="translate(88.000000, 553.000000)">
                <circle id="Oval-9" fill="#d01d1b" cx="11" cy="11" r="11"></circle>
                <path d="M12.0894264,11 L15.3577057,14.2682793 C15.6585425,14.5691161 15.6585425,15.0568689 15.3577057,15.3577057 C15.0568689,15.6585425 14.5691161,15.6585425 14.2682793,15.3577057 L11,12.0894264 L7.7317207,15.3577057 C7.4308839,15.6585425 6.94313107,15.6585425 6.64229427,15.3577057 C6.34145747,15.0568689 6.34145747,14.5691161 6.64229427,14.2682793 L9.91057357,11 L6.64229427,7.7317207 C6.34145747,7.4308839 6.34145747,6.94313107 6.64229427,6.64229427 C6.94313107,6.34145747 7.4308839,6.34145747 7.7317207,6.64229427 L11,9.91057357 L14.2682793,6.64229427 C14.5691161,6.34145747 15.0568689,6.34145747 15.3577057,6.64229427 C15.6585425,6.94313107 15.6585425,7.4308839 15.3577057,7.7317207 L12.0894264,11 Z" id="Combined-Shape" fill="#FFFFFF"></path>
            </g>
        </g>
    </g>
</svg>